<svg xmlns="http://www.w3.org/2000/svg" width="32" height="32" viewBox="0 0 32 32" fill="none">
      <path
        d="M15.24 0.00796683C17.948 0.260614 20.5901 1.02411 23.0243 2.26437C25.4584 3.50462 27.6291 5.19335 29.4252 7.23573C30.1566 8.06736 29.9513 9.32872 29.0553 9.97968L16.4215 19.1586C15.096 20.1218 13.2375 19.1748 13.2375 17.5363V1.92009C13.2375 0.812576 14.1372 -0.0949112 15.24 0.00796683Z"
        fill="#ABDB42"
      />
      <path
        d="M26.6665 19.4667C26.6665 12.5448 21.0552 6.93344 14.1333 6.93344C7.21132 6.93344 1.59998 12.5448 1.59998 19.4667C1.59998 26.3887 7.21132 32 14.1333 32C21.0552 32 26.6665 26.3887 26.6665 19.4667Z"
        fill="#FFE875"
      />
      <path
        d="M24.88 13.0127L16.4215 19.1581C15.096 20.1211 13.2375 19.1742 13.2375 17.5357V6.96441C13.5335 6.94349 13.8324 6.93286 14.1336 6.93286C18.6952 6.93286 22.6876 9.3697 24.88 13.0127Z"
        fill="#FFDD00"
      />
    </svg>