<svg version="1.0" xmlns="http://www.w3.org/2000/svg"
 width="512.000000pt" height="512.000000pt" viewBox="0 0 512.000000 512.000000"
 preserveAspectRatio="xMidYMid meet">

<g transform="translate(0.000000,512.000000) scale(0.100000,-0.100000)"
fill="#d3f699" stroke="none">
<path d="M590 4299 c-32 -13 -77 -56 -98 -94 -16 -27 -17 -138 -20 -1291 l-2
-1261 -237 -283 -236 -284 11 -53 c20 -94 104 -189 190 -213 52 -14 4672 -14
4724 0 86 24 170 119 190 213 l11 53 -236 284 -237 283 -2 1261 c-3 1153 -4
1264 -20 1291 -22 40 -66 81 -101 94 -38 15 -3901 14 -3937 0z m3717 -185 c15
-11 38 -40 51 -64 l22 -44 0 -1022 0 -1021 -23 -44 c-15 -27 -38 -52 -63 -66
l-39 -23 -1690 0 -1691 0 -44 23 c-31 15 -51 35 -67 66 l-23 44 0 1019 c0
1091 -1 1056 48 1112 42 47 -32 45 1784 43 1705 -2 1707 -2 1735 -23z m-1038
-2936 l69 -83 -389 -3 c-214 -1 -564 -1 -778 0 l-389 3 69 83 70 82 639 0 639
0 70 -82z m-316 -187 c32 -13 41 -39 22 -67 l-15 -24 -400 0 c-392 0 -399 0
-413 21 -19 26 -11 58 17 69 29 12 759 12 789 1z"/>
<path d="M2430 3756 c0 -4 -48 -244 -55 -272 -3 -13 -20 -27 -44 -36 l-39 -16
-119 79 c-65 43 -123 79 -128 79 -6 0 -50 -39 -98 -88 l-87 -87 82 -123 82
-123 -15 -42 -16 -41 -146 -30 -147 -30 0 -128 c0 -112 2 -127 18 -132 9 -2
67 -14 127 -26 143 -27 152 -31 166 -78 11 -39 11 -39 -69 -159 l-80 -120 91
-91 92 -92 120 80 c95 64 125 79 145 75 55 -13 65 -28 84 -126 9 -52 22 -115
28 -141 l10 -48 128 0 128 0 10 48 c6 26 19 89 28 141 19 98 29 113 84 126 20
4 50 -11 145 -75 l120 -80 92 92 92 91 -81 118 -81 118 12 41 c15 49 22 53
166 80 61 12 118 24 128 26 15 5 17 20 17 132 l0 127 -147 30 -146 30 -16 42
-15 42 82 123 82 123 -87 87 c-48 49 -92 88 -98 88 -5 0 -63 -36 -128 -79
l-119 -79 -39 16 c-24 9 -41 23 -44 36 -7 28 -55 268 -55 272 0 2 -58 4 -130
4 -71 0 -130 -2 -130 -4z m256 -590 c140 -64 208 -227 154 -370 -27 -71 -82
-133 -147 -166 -40 -21 -62 -25 -133 -25 -71 0 -93 4 -133 25 -180 91 -220
331 -81 474 90 93 220 116 340 62z"/>
</g>
</svg>
